/* XPM */
static char *pixel_coin_removebg_preview__1_1744035584[] = {
/* columns rows colors chars-per-pixel */
"64 64 256 2 ",
"   c #090406",
".  c #120505",
"X  c #190A07",
"o  c #1B1819",
"O  c #1B100B",
"+  c #230B09",
"@  c #240907",
"#  c #3B0C0A",
"$  c #350908",
"%  c #28160B",
"&  c #36150B",
"*  c #261B17",
"=  c #311915",
"-  c #392D0A",
";  c #3D310A",
":  c #27261D",
">  c #3A2519",
",  c #252425",
"<  c #282727",
"1  c #37342F",
"2  c #450A0A",
"3  c #431C0E",
"4  c #4A180D",
"5  c #59160C",
"6  c #481A13",
"7  c #5B1410",
"8  c #790A07",
"9  c #651A0E",
"0  c #79140A",
"q  c #76160B",
"w  c #791B12",
"e  c #4B220C",
"r  c #58270D",
"t  c #592514",
"y  c #4F3117",
"u  c #692A0E",
"i  c #6E330E",
"p  c #79350E",
"a  c #672716",
"s  c #762D17",
"d  c #6A3416",
"f  c #783615",
"g  c #73260E",
"h  c #4B322D",
"j  c #703B2D",
"k  c #5E4212",
"l  c #5B490B",
"z  c #704A13",
"x  c #77620E",
"c  c #4B4830",
"v  c #76572A",
"b  c #6E4A2E",
"n  c #6B643D",
"m  c #3F3D40",
"M  c #524E49",
"N  c #725A4D",
"B  c #7E614A",
"V  c #736C44",
"C  c #7A7452",
"Z  c #6D6E73",
"A  c #706F6B",
"S  c #5F5F62",
"D  c #8B0B06",
"F  c #840E09",
"G  c #851C0C",
"H  c #9D1A0A",
"J  c #86230D",
"K  c #952A0D",
"L  c #98250C",
"P  c #95380B",
"I  c #872E1C",
"U  c #8A321C",
"Y  c #8B3A1B",
"T  c #84341A",
"R  c #923C1C",
"E  c #963B17",
"W  c #8F350F",
"Q  c #A5290D",
"!  c #B6340D",
"~  c #B63611",
"^  c #A9310E",
"/  c #8F3923",
"(  c #8A460E",
")  c #964A0E",
"_  c #98411A",
"`  c #835918",
"'  c #985713",
"]  c #8F550F",
"[  c #B8460E",
"{  c #B6530C",
"}  c #BB550E",
"|  c #A74713",
" . c #B54413",
".. c #AA5718",
"X. c #B65513",
"o. c #A9530C",
"O. c #916C14",
"+. c #A97115",
"@. c #905028",
"#. c #A75928",
"$. c #AD4921",
"%. c #926B2F",
"&. c #AA632B",
"*. c #BB6725",
"=. c #B47634",
"-. c #AE7434",
";. c #C6450E",
":. c #C6490D",
">. c #C9580E",
",. c #D55B0A",
"<. c #C54813",
"1. c #C95812",
"2. c #D35A12",
"3. c #C9670D",
"4. c #D56C0B",
"5. c #D7650B",
"6. c #C6750C",
"7. c #D9750D",
"8. c #D66A12",
"9. c #DA7915",
"0. c #CA6D16",
"q. c #E26D07",
"w. c #E77304",
"e. c #E97502",
"r. c #E87A09",
"t. c #E47A11",
"y. c #CD782D",
"u. c #83634C",
"i. c #997458",
"p. c #906E52",
"a. c #A87C5C",
"s. c #A86751",
"d. c #837C6C",
"f. c #AE7C68",
"g. c #C67947",
"h. c #AB883C",
"j. c #BA853A",
"k. c #BE923A",
"l. c #DC840A",
"z. c #DA8A0B",
"x. c #D7850F",
"c. c #D08E11",
"v. c #E3830B",
"b. c #E88B0A",
"n. c #FA8C03",
"m. c #F58A07",
"M. c #E8980B",
"N. c #F89608",
"B. c #E59615",
"V. c #ED9314",
"C. c #D1AA13",
"Z. c #E9A80C",
"A. c #F6A50B",
"S. c #ECB10C",
"D. c #FBBB03",
"F. c #F4B909",
"G. c #F8AA18",
"H. c #EAB312",
"J. c #FDB31E",
"K. c #F8B717",
"L. c #EAA51A",
"P. c #D58B25",
"I. c #C58536",
"U. c #CC913D",
"Y. c #C3973D",
"T. c #CD8C30",
"R. c #D5AC34",
"E. c #F7A923",
"W. c #FAB724",
"Q. c #ECAE2C",
"!. c #E89A21",
"~. c #EEC80A",
"^. c #FACC05",
"/. c #F7C508",
"(. c #FED503",
"). c #FBD30C",
"_. c #FBD607",
"`. c #F6C817",
"'. c #FBD512",
"]. c #F9D51A",
"[. c #FBDA1A",
"{. c #EECA10",
"}. c #F4C42B",
"|. c #F8DA28",
" X c #F5C836",
".X c #FAD932",
"XX c #F9D738",
"oX c #FAE12A",
"OX c #FCE334",
"+X c #FCE53C",
"@X c #FDE012",
"#X c #B88445",
"$X c #B3855A",
"%X c #918F6C",
"&X c #B2826A",
"*X c #B1AA72",
"=X c #CB924E",
"-X c #D8A645",
";X c #D4B24D",
":X c #D2AE56",
">X c #E8B84A",
",X c #EAB450",
"<X c #EAB963",
"1X c #CBAE75",
"2X c #D6C351",
"3X c #F7D846",
"4X c #F6DA55",
"5X c #EFC94F",
"6X c #FAE649",
"7X c #FBE756",
"8X c #FCF15E",
"9X c #DCD276",
"0X c #D3C86D",
"qX c #EBD66F",
"wX c #FAEB66",
"eX c #FEF36A",
"rX c #FEF265",
"tX c #FAEA76",
"yX c #FDF474",
"uX c #FDF47C",
"iX c #EDE576",
"pX c #929086",
"aX c #A3A49C",
"sX c #B6B289",
"dX c #A7A8A6",
"fX c #B7B9B9",
"gX c #BA8F86",
"hX c #C6BB93",
"jX c #D4BBAB",
"kX c #DBD587",
"lX c #CFCB93",
"zX c #EDCA90",
"xX c #F7EA89",
"cX c #FDF68A",
"vX c #FCF798",
"bX c #EDE694",
"nX c #C4C4B9",
"mX c #D9D2B2",
"MX c #E8D8AD",
"NX c #F7EDA9",
"BX c #FDFCAB",
"VX c #FAF5A9",
"CX c #FDFBB4",
"ZX c #FAF5B9",
"AX c #F0E9AE",
"SX c #D8D9D6",
"DX c #D0D0C6",
"FX c #DFE0DA",
"GX c #FBF9C7",
"HX c #E2E2D9",
"JX c #FAF9D8",
"KX c #E8E4CF",
"LX c #FDFDE8",
"PX c #F4F2EC",
"IX c #E6D9CC",
"UX c None",
/* pixels */
"UXUXUXUXUXUXUXUXUXUXUXUXUXUXUXUXUXUXUXUXUXUXUXUXUXUXUXUXUXUXUXUXUXUXUXUXUXUXUXUXUXUXUXUXUXUXUXUXUXUXUXUXUXUXUXUXUXUXUXUXUXUXUXUX",
"UXUXUXUXUXUXUXUXUXUXUXUXUXUXUXUXUXUXUXUXUXUXUXUXUXUXUXUXUXUXUXUXUXUXUXUXUXUXUXUXUXUXUXUXUXUXUXUXUXUXUXUXUXUXUXUXUXUXUXUXUXUXUXUX",
"UXUXUXUXUXUXUXUXUXUXUXUXUXUXUXUXUXUXUXUXUXUXUXUXUXUXUXUXUXUXUXUXUXUXUXUXUXUXUXUXUXUXUXUXUXUXUXUXUXUXUXUXUXUXUXUXUXUXUXUXUXUXUXUX",
"UXUXUXUXUXUXUXUXUXUXUXUXUXUXUXUXUXUXUXUXUXUXUXUXUXUXUXUXUXUXUXUXUXUXUXUXUXUXUXUXUXUXUXUXUXUXUXUXUXUXUXUXUXUXUXUXUXUXUXUXUXUXUXUX",
"UXUXUXUXUXUXUXUXUXUXUXUXUXUXUXUXUXUXUXUXUXUXUXUXUXUXUXUXUXUXUXUXUXUXUXUXUXUXUXUXUXUXUXUXUXUXUXUXUXUXUXUXUXUXUXUXUXUXUXUXUXUXUXUX",
"UXUXUXUXUXUXUXUXUXUXUXUXUXUXUXUXUXUXUXUXUXUXUXUXUXUXUXUX< < < < < , < , UXUXUXUXUXUXUXUXUXUXUXUXUXUXUXUXUXUXUXUXUXUXUXUXUXUXUXUX",
"UXUXUXUXUXUXUXUXQ.UXUXUXUXUXUXUXUXUXUXUXUXUXUXUXUX, o < aXHXHXFXFXFXFXaX, , , UXUXUXUXUXUXUXUXUXUXUXUXUXUXUX>XUXUXUXUXUXUXUXUXUX",
"UXUXUXUXUXUXUXUXzXg.UXUXUXUXUXUXUXUXUXUXUX  , * S SXSXmXAXCXCXCXCXCXCXNXmXSXSXZ o ,   UXUXUXUXUXUXUXUXUXUXUXzX=XUXUXUXUXUXUXUXUX",
"UXUXUXUXUXUXUXAXqXB.UXUXUXUXUXUXUXUXUXUX1 S nXDXKXJXtX7X6X7X6X6X7X6X7X6X7X7XGXKXDXnXS 1 UXUXUXUXUXUXUXUXUXMXxXQ.1.UXUXUXUXUXUXUX",
"UXUXUXUXUXt.y.qX|.M.1.8.UXUXUXUXUXUXh m A GXvXwXOXOX@XZ.z.z.z.z.z.z.z.z.Z.).|.OX7XcXZXd.m m UXUXUXUXUXUX9.<X4XS.>.2.UXUXUXUXUXUX",
"UXUXUXUXUXUXUX9.A.,.^ UXUXUXUXUXUXS FXJXbXoX|.`.S.S.S.o.q q 0 0 q q q q P Z.S.S.F.|.OXbXKXSXM UXUXUXUXUXUX8.G.7.^ UXUXUXUXUXUXUX",
"UXUXUXUXUXUXUXUXr.[ UXUXUXUXUXo S HXPXwXOX|.Z.>.^ J J b v v v v v v v v ` J J Q 1.M.].OXyXJXHXM X UXUXUXUXUXv.>.UXUXUXUXUXUXUXUX",
"UXUXUXUXUXUXUXUXt.UXUXUXUXX   pXFXJX7X|.H.c.r 3 3 v v =.Y.U.U.=XU.Y.U.U.j.@.b & 3 r 7.K.oX6X6XH.x   X UXUXUXUXUXUXUXUXUXUXUXUXUX",
"UXUXUXUXUXUXUXUXUXUXUXUX% O.*XlX7X4XS.M.] u y h.h.I.=X$X&X&X&X&X&Xa.#X#X#Xj.j.h.#Xy r ] B.S._._.c.o.' O UXUXUXUXUXUXUXUXUXUXUXUX",
"UXUXUXUXUXUXUXUXUXUXUXO ' 9XxX6X).Z...) a v #XI.I.a.f.mXJXLXLXPXJXcXuXuXiXa.-.y.k.-.v u P o.Z.^./.N.8.a . UXUXUXUXUXUXUXUXUXUXUX",
"UXUXUXUXUXUXUXUXUXUX& ` L.ZXwX).Z...e @.=.U.=.s.&XIXJXGXvXbXkXbXxXqXiXyXyXuXqXk.#Xj.=Xj.@.e X.Z.^./.7.K p % UXUXUXUXUXUXUXUXUXUX",
"UXUXUXUXUXUXUXUXUXUXy Q.,XtX+XZ.( t =.U.-Xs.s.jXLXJXCXcXxXC o n *X: n iXyXyXyXyXtXj.-.Y.Y.&.e o.S.(.Z.:.7.& UXUXUXUXUXUXUXUXUXUX",
"UXUXUXUXUXUXUXUX  6 s.KXGX3X).O.y #.-X*.@.mXLXJXZXBXcXcXn A fXd.c fXA n uXyXyXyXyXyX:X_ =.-X#.t +._.^.S.t.^ # UXUXUXUXUXUXUXUXUX",
"UXUXUXUXUXUXUXUX  M HXJX3X'.z.p b -X#.y.kXVXCXVXvXcXuXuXc C JXsX1 CX%X> :XwXyXyXyXyXiX5X0.#.R.j ( Z._./.m.1.3 UXUXUXUXUXUXUXUXUX",
"UXUXUXUXUXUXUXUXZ DXJX7X).b.( @.j.&.P.qXvXVXkXkX9X9X9X9Xc C BX%X1 bX%X% @.0X0XiXyXyXyXwX>Xy.&.j.z ) M.^.F.5.| a UXUXUXUXUXUXUXUX",
"UXUXUXUXUXUXUXX dXLXvX'.M.f @.-.#.#.qXvXBXlXc , , , , : o C CX*X1 vX%XO * , : V qXyXyXyX4XE._ #.@.s ( M.^.b.8.p   UXUXUXUXUXUXUX",
"UXUXUXUXUXUXUX  dXGX6XF.4.e %.U.@.=XVXCXlXc dXnXnXnXnXnXlXmXVXbXlXBXAXhXsXlXlXA c iXeXyX4XE.*._ $.s r t.F.D.7.p   UXUXUXUXUXUXUX",
"UXUXUXUXUXUXUX  sXeX`.8.} d -.I.&XCXCXBX0X: DXxXxXLXZXZXBXBXBXBXBXBXBXcX.XoX|.5X*Xc R. X}.J.W.*.$.I u 3.v./.9.p   UXUXUXUXUXUXUX",
"UXUXUXUXUXUXo @.;X.X3X3.r #Xy.:XNXLXGXuX*X: 0X6XwXGXCXvX6XOXOXOXOXOXOX|.(.(.^.'.R.n z T.J.J.J.E.y.$.U a 9.XXG.{ 5 . UXUXUXUXUXUX",
"UXUXUXUXUXUX+ P.3X].4X1.e k.-.jXLXLXGXuX0X> %.C. XxXGX7X).O.x x x x x +.F.(.(./.A.U.= +.W.J.J.J.P.E Y e 9.4X`.4.J   UXUXUXUXUXUX",
"UXUXUXUXUXUXM 0X4X|.5X1.5 Y.&.jXLXJXuXeX5X_ & i I.tXxX@X~.- + # # @ $ t +.^.(.D.m.*.+ ' J.J.J.J.P.R Y r 9.3X].b.o.4 UXUXUXUXUXUX",
"UXUXUXUXUX< kX3XVX X0.E z &.#XIXVXyXeXeX7X!. .& Z VXoX@X{.; 9 ~  . . .s - ~.(./.m.*.% o.J.J.J.J.L...I s X.V.[.H.<.K X UXUXUXUXUX",
"UXUXUXUXUX< 9XXXZX X} 5 =X&.hXLXvXrXeXeXrXwX5Xk Z CX6XOX{.- d E.G.E.E.+.- ~.(./.N.*.O ' J.J.J.J.E.P.I R t v.[.H.<.L . UXUXUXUXUX",
"UXUXUXUXUX< kX.XZX}.{ 6 =X&.0XCXyXrXeXeXeXeX3Xk Z ZX6XOX_.- = x ` x ` n %X{.(.A.8.@.$ ..J.J.J.J.J.T.I Y e l.'.H.<.K . UXUXUXUXUX",
"UXUXUXUXUX< 9X.XZX}.{ 3 k.&.;XeXrXrXeXeXyXwX Xd Z ZX6X+X|.V M m M M M d.xX).F.6.9 3 K 0.J.J.J.J.J.9.U R e l.'.F.<.K . UXUXUXUXUX",
"UXUXUXUXUX< 9X.XZX}.{ 3 Y.&.;XeXeXeXeXeXwX7XW.k Z GX7X7XeXVXGXZXZXAXAXtX_.(.6.i & K 7.V.J.J.W.J.A.6.U _ e v.).H.<.L . UXUXUXUXUX",
"UXUXUXUXUX< 9X.XZXQ.{ - Y.&.;XeXeXeXeXeX XW.W.k Z GXeX8X8XrXwX8X8X|.[.).(._.z # Q 5.V.J.J.G.E.G.N.3.I _ e l.'.H.<.L . UXUXUXUXUX",
"UXUXUXUXUX< 9X.XZX}.} & Y.&.;XeXeXeXeX3XW.K.J.k Z GX7X[.[.[.].].'.).^.(.(.(.z & ^ B.E.J.G.G.A.N.N.4.T _ e l.).H.<.L . UXUXUXUXUX",
"UXUXUXUXUX, 9X.XZX}.{ e Y.&.;XeXeXwX3XW.W.J.W.k Z ZX[.(.^.x l l l l O.z.^.(.C.x 3 X.E.J.G.A.n.n.n.3.I _ e l.).H.<.K . UXUXUXUXUX",
"UXUXUXUXUX< 9X.XVX}.{ 3 Y.&.;XeXwX3XJ.J.J.W.W.k Z NX_.(.~.- @ 2 # # 4 ( M.^.(.C.z 5 X.B.N.n.n.n.m.} I _ r l.^.H.<.K . UXUXUXUXUX",
"UXUXUXUXUX< 9XXXZX}.{ e Y.&.:XeX3XW.J.J.J.J.J.k Z VX_.(.~.; 9 <.[ [ T 5 ] ^.(./.x.d t 3.n.n.n.e.e.} T Y 4 l.).H.<.K . UXUXUXUXUX",
"UXUXUXUXUX< 9X.XZXQ.{ & Y.#.T.}.W.G.J.W.J.J.J.k Z NX_.(.~.; g m.n.N.7.W - ~.(./.b.*.+ | n.v.e.e.e.} U R 4 l.).H.<.K . UXUXUXUXUX",
"UXUXUXUXUX* R.].wX X3.T %.-.0.L.J.J.J.J.J.W.L.y Z NX_.(.{.; u v.b.b.v.' y ~.(.D.m.*.+ E e.e.e.e.4._ U f ) v.'.Z.1.K . UXUXUXUXUX",
"UXUXUXUXUX% 6.A./. XQ.:.5 k.&.B.J.J.J.J.G.x.y . A NX_.(.^.; X % % % % M lX'.(./.m.y.% P e.e.e.e.5.U Y r t.L.K.M.2.L . UXUXUXUXUX",
"UXUXUXUXUX% i  .b.K.4X1.6 j.*.!.J.W.J.N.z.y pXdXlX.X(.(.).*XaXaXaXaXdXsX4X_.D.N.8.0.+ P e.e.e.e.3.U Y r v. XN.5.L 4 UXUXUXUXUXUX",
"UXUXUXUXUXUX. G e.K.4X} 4 k.=...P.J.G.A.6.: DXCXXX(.(.^._.7XtXwXyXtXtX7X^.D.N.m.,.| X P e.e.e.} Y R _ r v. Xm.,.8   UXUXUXUXUXUX",
"UXUXUXUXUXUX. q 7.K..X7.z -.=._ X.J.N.n.6.% 1X XD.D.D.D.D.D.D.D./.D.D.D.A.e.e.4.! 9 # | e.e.w.E s T T ( M.`.b.} 5 . UXUXUXUXUXUX",
"UXUXUXUXUXUXUX. o.A./.^.v.u %.T...!.N.n.6.3 +.x.6.6.6.6.3.z.N.b.x.N.b.6.{ | P ^ q # K 5.e.e.4.E _ s i M./.A.q.s   UXUXUXUXUXUXUX",
"UXUXUXUXUXUXUX  o.n.N.^.b.r %.U.T z v.m.m.o.> + X @ @ X X ( N.+.e b.' X X @ @ X & K 5.w.w.4.a a $.s i N./.8.2.f   UXUXUXUXUXUXUX",
"UXUXUXUXUXUXUXUXf 5.N.^.S.C.O.%.&.7 ..r.n.w.K J G J G J $ z N.' % b.] @ g G J G K 5.e.e.5._ t U a ` C.F./.8. .a UXUXUXUXUXUXUXUX",
"UXUXUXUXUXUXUXUX. W r.M.^.^.C.v %.%.a 4.n.n.w.q.5.,.,.,.e i e.) & 7.( $ Q ,.,.,.5.e.e.e.{ a U s ` C.).F.z.2.g . UXUXUXUXUXUXUXUX",
"UXUXUXUXUXUXUXUXUXr 2.v.z./._.c.@.%.j | | 7.n.m.e.e.e.e.i u ) f 3 ( i 5 [ q.w.e.e.q.5.| W s s ` C._./.9.5. .3 UXUXUXUXUXUXUXUXUX",
"UXUXUXUXUXUXUXUXUXUXJ 9.:.z.~.).C.v f I U | | X.4.e.e.e.[ 9 @ 4 q $ 5 [ q.w.w.5.| | E I s j N R.(.^.z.~ 5.q UXUXUXUXUXUXUXUXUXUX",
"UXUXUXUXUXUXUXUXUXUX# Q H :.M._.[.2XN j W s / E [ | | 5.q.:.L Q Q Q [ q.4.| | | I T I U j S MX3X^.M.[ H L $ UXUXUXUXUXUXUXUXUXUX",
"UXUXUXUXUXUXUXUXUXUXUX# G ~ 1.M.^..XMXC h j Y Y U I U | {  .|  .| |  . .o.U I U / / j h d.NX.X^.M.1.~ 0 # UXUXUXUXUXUXUXUXUXUXUX",
"UXUXUXUXUXUXUXUXUXUXUXUX# F ~ 1.v.^.[.qXNXsXh t a U R I U U U U U U U I I E Y 7 h c lXbXwX'./.l.1.~ F # UXUXUXUXUXUXUXUXUXUXUXUX",
"UXUXUXUXUXUXUXUX,XUXUXUXUX$ 8 ~ 2.7./.).'.XXbX=XY y 4 Y E T U T T U I R @.6 h T =XbX|.'.^.F.4.2.~ 8 $ UXUXUX,XUXUXUXUXUXUXUXUXUX",
"UXUXUXUXUXUXUXUXzXy.UXUXUXUX$ 8 H ! w.r.Z.).[.3XqX;X9.1._ d i i i s u E g.mXmXMXqX].^.M.7.4.! H q $ UXUXUXUXzX=XUXUXUXUXUXUXUXUX",
"UXUXUXUXUXUXUXAX4XL.1.UXUXUXN 6 2 7 Q ;.5.l.D.'.[.[.`.H.>X<X<X5X<X5X5X,X}.XXXXoX'.D.l.5.;.Q 5 2 6 b UXUXUXMXxXQ.3.UXUXUXUXUXUXUX",
"UXUXUXUXUXt.y.<X}.M.1.8.UXUXa.N h h 2 H Q ! B.Z.F._._.(.oX+X+X+X+X+X6X.X_.^.^.F.Z.B.! Q H 2 h h N &XUXUX9.-X3XZ.>.2.UXUXUXUXUXUX",
"UXUXUXUXUXUXUXq.M.:.UXUXUXUXUXa.a.i.> 7 8 8 ~ [ 1.M.M.N.M.b.b.b.b.b.M.M.b.N.M.1.[ ~ 8 8 5 1 i.$Xf.UXUXUXUX>.m.5.Q UXUXUXUXUXUXUX",
"UXUXUXUXUXUXUXUXr. .UXUXUXUXUXUXUXa.a.h O & 0 F H ;.;.;.;.;.;.;.;.;.;.;.;.;.;.H F 0 = O h a.a.UXUXUXUXUXUXUXt.2.UXUXUXUXUXUXUXUX",
"UXUXUXUXUXUXUXUXUXUXUXUXUXUXUXUXUXUXa.i.p.u.= O 2 D D D D D D D D D D D D D D 2 O = u.i.i.f.UXUXUXUXUXUXUXUXUXUXUXUXUXUXUXUXUXUX",
"UXUXUXUXUXUXUXUXUXUXUXUXUXUXUXUXUXUXUXUXUXf.p.p.N X + @ @ @ + + @ @ X @ X + + b p.p.a.UXUXUXUXUXUXUXUXUXUXUXUXUXUXUXUXUXUXUXUXUX",
"UXUXUXUXUXUXUXUXUXUXUXUXUXUXUXUXUXUXUXUXUXUXUXUXa.B B u.B B B B u.B B B u.B B i.$XUXUXUXUXUXUXUXUXUXUXUXUXUXUXUXUXUXUXUXUXUXUXUX",
"UXUXUXUXUXUXUXUXUXUXUXUXUXUXUXUXUXUXUXUXUXUXUXUXUXUXUXUXUXUXUXUXUXUXUXUXUXUXUXUXUXUXUXUXUXUXUXUXUXUXUXUXUXUXUXUXUXUXUXUXUXUXUXUX",
"UXUXUXUXUXUXUXUXUXUXUXUXUXUXUXUXUXUXUXUXUXUXUXUXUXUXUXUXUXUXUXUXUXUXUXUXUXUXUXUXUXUXUXUXUXUXUXUXUXUXUXUXUXUXUXUXUXUXUXUXUXUXUXUX",
"UXUXUXUXUXUXUXUXUXUXUXUXUXUXUXUXUXUXUXUXUXUXUXUXUXUXUXUXUXUXUXUXUXUXUXUXUXUXUXUXUXUXUXUXUXUXUXUXUXUXUXUXUXUXUXUXUXUXUXUXUXUXUXUX",
"UXUXUXUXUXUXUXUXUXUXUXUXUXUXUXUXUXUXUXUXUXUXUXUXUXUXUXUXUXUXUXUXUXUXUXUXUXUXUXUXUXUXUXUXUXUXUXUXUXUXUXUXUXUXUXUXUXUXUXUXUXUXUXUX"
};
