/* XPM */
static char *Juice_Box_Icon_PNG___SVG_Design_For_T_Shirts_removebg_preview__1_1744036073[] = {
/* columns rows colors chars-per-pixel */
"64 64 94 2 ",
"   c #5F5952",
".  c #655C54",
"X  c #756454",
"o  c #7A6754",
"O  c #7E6A54",
"+  c #7E6B58",
"@  c #736F6A",
"#  c #76716B",
"$  c #787570",
"%  c #7E7974",
"&  c #846D55",
"*  c #896F55",
"=  c #836F58",
"-  c #877057",
";  c #8C7256",
":  c #8D745A",
">  c #8F785C",
",  c #927656",
"<  c #987755",
"1  c #957857",
"2  c #9A7A57",
"3  c #91765B",
"4  c #957A5C",
"5  c #9B7C5B",
"6  c #A17D57",
"7  c #A17E59",
"8  c #817263",
"9  c #8F7760",
"0  c #837768",
"q  c #967C63",
"w  c #9C7F60",
"e  c #827F79",
"r  c #9F815F",
"t  c #A4825B",
"y  c #AB855B",
"u  c #AE885D",
"i  c #B0875E",
"p  c #B38A5D",
"a  c #BA8E5F",
"s  c #BD915F",
"d  c #9F8161",
"f  c #8A867F",
"g  c #A38462",
"h  c #AA8761",
"j  c #A78862",
"k  c #AC8963",
"l  c #A18468",
"z  c #B38D63",
"x  c #B98F61",
"c  c #BC9263",
"v  c #B79268",
"b  c #BC956A",
"n  c #C3945F",
"m  c #C9985F",
"M  c #C49662",
"N  c #C99761",
"B  c #C39867",
"V  c #CA9860",
"C  c #C1976A",
"Z  c #C59A6A",
"A  c #CB9E6B",
"S  c #CEA16C",
"D  c #D4A46E",
"F  c #D9A76E",
"G  c #D7A86F",
"H  c #DBA96E",
"J  c #D4A470",
"K  c #D8A770",
"L  c #DDAA71",
"P  c #E2AD6F",
"I  c #E3AE72",
"U  c #E6B172",
"Y  c #ECB474",
"T  c #F1B775",
"R  c #F4B975",
"E  c #F3B878",
"W  c #8B8681",
"Q  c #8F8A84",
"!  c #908B87",
"~  c #918C88",
"^  c #9B9387",
"/  c #96918C",
"(  c #9A968F",
")  c #9A9690",
"_  c #9F9B94",
"`  c #A19C96",
"'  c #A6A29B",
"]  c #A9A59F",
"[  c #ABA7A1",
"{  c #AEA9A3",
"}  c #B1ACA6",
"|  c #B4AFA9",
" . c #B6B1A9",
".. c None",
/* pixels */
"................................................................................................................................",
"................................................................................................................................",
"................................................................................................................................",
"............................................................................................) ' ................................",
"........................................................................................~ } [ W ................................",
"....................................................................................~ } [ f ....................................",
"................................................................................Q { } ~ ........................................",
"............................................................................@ _ | / ............................................",
"..........................................................................% ` e ................................................",
"........................................................................# ( $ ..................................................",
"........................................................................Q % ....................................................",
"........................................................................( # ....................................................",
"........................................................................ .......................................................",
"........................................................................| ......................................................",
"........................................................................| ......................................................",
"......................................................................8 | 0 ....................................................",
"................................................4 d l k 4 o q b C B C l ^ q j 3 = 4 9 ..........................................",
"................................. X w v Z A A A Z B b c z d 4 z v b Z A J K H L I K S k + . ....................................",
"................................O u 5 5 5 : q j b A D H L U U U L K A Z B v z z z w : b B k ....................................",
"................................- x 2 2 5 t 2 5 t t z k k k = 4 k z k 5 J L U Y T z : Y K j ....................................",
"................................2 2 t 2 t y y , - - H B v Z 3 - 4 D R T R R R R T G K Y S = ....................................",
"................................p , y t , 7 M < , - b T I K L Z A Y R R R R R R E E R R E Z ....................................",
"................................s 2 p t y < u , a : B R R R R R R R R R R R R R R R R R D 4 ....................................",
"................................s a < 5 p a , a M o z Z Y R Y R R R R R R U A R R R R R I S ....................................",
"................................s m 2 ; u ; i p p & 5 A R R z G R R R R R T k D R R Y C z Z ....................................",
"................................c m p X ; y M o y * I R R R L u I R R R R R U I R Y z A v + ....................................",
"................................a N M O , N 2 * < h E E R R R S c T R R R R R R R Y G H t w ....................................",
"................................u < n s M V t & u 5 I R R R Y c L R R R R R R R R R T N I Z ....................................",
"................................c 2 2 m m N 5 2 p - k Y R R R Z M R R R R R R R R T A Y D 4 ....................................",
"................................y O , t a V n N x = k T T Y R R P R R R R R R R R R v C H S ....................................",
"................................u , 5 2 n N V V p h 5 K Y z Y R R R R R R R R R R R L k U b ....................................",
"................................c u o y n m V N p * k Z R H Y R R R R R R R R R R R S M R v ....................................",
"................................a p , * M V V V a * I Y R R R R R R R R R R R R R R Y Y U k ....................................",
"................................p 2 a < s V V V p : A R R R R R R R R R R R Y R R R R R Y 5 ....................................",
"................................c y t n M m V V p w b I R R R R R R R R R R A M R R T S D k ....................................",
"................................s n , u V m V V p 3 : F R R R R R R R R R R Y A R R R t 4 b ....................................",
"................................s m a y m V V V i h 7 h R R R R R R R R R R R R R R T c 4 : ....................................",
"................................c 6 y V N m V m i 1 k z T R R R R R R R R R R R R R R T z 4 ....................................",
"................................M 2 ; a V V V V u 4 E T R R R R R R R R R R R R R R R R I Z ....................................",
"................................u 2 & 6 V V m V u : b U R R R R R R R R R R R R R U b Y b g ....................................",
"................................x ; & , u m m m u t = A R R R R R T R R R R R R R T M D E g ....................................",
"................................c , ; ; y m m m y & Z K R R R R R R R R R R R R R R R T K A ....................................",
"................................a t ; , N V m m y 5 b Y L R H F T Y R R R R R R R R T T v = ....................................",
"................................n i * ; n m m m i v z S b Y I k I x U D Y R R R R R R Z g w ....................................",
"................................c 6 * y a N m V u : D Y T R R D z Z x Z I R R R R R R N 5 Z ....................................",
"................................s a 5 p N N V V y : A U R R R R C S z F R E R R R R R T D h ....................................",
"................................x 6 a p 6 N N V u o 5 Y R R R R Y Y P A R R R R R R R H I b ....................................",
"................................n t y 7 p V V V y k S T R R R R T R T R R R R R R R R F g 4 ....................................",
"................................a < * a M m N V i 5 z Y R R R R R R R R R R R R R R R L 5 k ....................................",
"................................p o O 5 m m V V u O v H R R R R R T R R R R R R R T T z Z k ....................................",
"................................p ; o y V V V V i : - I R R R R R R R R R R R R R R R Y 4 9 ....................................",
"................................x 2 * M V V V V p O g D R R R R R R R R R R T Y R R R H j w ....................................",
"................................a 7 u y N V m V i 5 A Y T R R R R R R R R R I z I R R T T J ....................................",
"................................a m M 6 p V m V p = I R Y I R R R R R R R R R F I R R R T S ....................................",
"................................a M 2 y n m m V i 5 z T Y k I R R R T R R T R R R R R R L g ....................................",
"................................x V 6 y V m N V p ; K E Y 5 z E R R R R Y R R R R R R T K + ....................................",
"................................, p c y m m V V p t Z Y E B K R R R E T Z B E E R z C G 3 g ....................................",
"...................................., u M n V N p : b T R R R I P F J z K z z E K : b A : : ....................................",
"........................................, p M m x O j S I T R K 5 z Z d : r - v k 4 ............................................",
"............................................; p p > g J - D Y k 4 t d o X ......................................................",
"................................................= r Z q + : d X ................................................................",
"................................................................................................................................",
"................................................................................................................................",
"................................................................................................................................"
};
