/* XPM */
static char *Most_detailed_Hubble_image_ever_captures_265_000_galaxies_across_the_cosmos__1_1744038657[] = {
/* columns rows colors chars-per-pixel */
"64 64 34 1 ",
"  c black",
". c #010101",
"X c #010302",
"o c #020202",
"O c gray1",
"+ c #020401",
"@ c #030502",
"# c #020403",
"$ c #040603",
"% c #010204",
"& c #020305",
"* c #030504",
"= c #030406",
"- c #040404",
"; c gray2",
": c #050704",
"> c #040605",
", c #040507",
"< c #050706",
"1 c #060606",
"2 c #070707",
"3 c #060807",
"4 c #070908",
"5 c gray3",
"6 c #090909",
"7 c #080A09",
"8 c #090B0A",
"9 c gray4",
"0 c #0B0B0B",
"q c #0A0C0B",
"w c #0B0D0C",
"e c #0C0C0C",
"r c gray5",
"t c #0E0E0E",
/* pixels */
"  ----55---5-55---55-5555-5555555-555-555-55-5-5--5-5-55---5----",
"  - --5--5-55555555555555555555555555555555--5555555555--5555--5",
"  ---55555555555555555555555555555e5555555555555555555555555555-",
"-----555555e55eee555e5eeee5e5ee5e55eee5e555e55e55555555e55e55555",
"---555555ee5ee5e5e5ee5ee5e5e5e5e5e5e5e5e55e55555e555e5555e5eee55",
"---5555ee5eee555555e5e55e5eee5eee5eee5e55e555e55555e555e55e55555",
"-5-555e5eee5e55e5e55555e55e555e55555555555555555555555555e5ee555",
"5-555eeee55e555555555e5555555555555e5e555555555555555555555e5555",
"-55e5e5e55e555-555-5-55555555555555-555555555-55---2-52555eeee55",
"-555eeee5e555555555555555-555-555555-5-5--5-5--522----25555e5ee5",
"555eee5e55555--55-5---5---5---5--5-5-5-5-5-5555------5255555ee55",
"-5e5eeee5e55555--5-5-5-5-5-5-5-55-5-5-5--------5-----222555e5e55",
"55eeeee5555-55-5-5---55555-5-5---555-5555---5--------5-355555555",
"5eeeee5e5555--5-5--5--------5--5----------------------55-55ee555",
"555eeee55555-5-----5-5---5-5---------------------O-----55555e555",
"eeeeeeee55-555--5-----5-----3--*-5-5-5-5--- --- OOOO--5--5555555",
"5eeeee55555555--4-<*<*<**<*<*3<<****************-****33333777733",
"5eeeeee55e555--5-3*<*<*<**<*<*<3*********************3<333777733",
"e5eeee5e555555--3*<**<<******<*<*********************3<333477733",
"5eeeeee55e555---************<*<**********************<<333477733",
"5eeeeeee555555--********##****<*********************-3<333777733",
"555eeeee5e55-5-5********###**************************3<333777733",
"55eeeeee55555---********####************************-*3333777733",
"55eeeeee555555-5#######*####************************333333777733",
"55eeeeee5555--5-****############################*****<<334777433",
"5ee5eee5555--5--****############################*****<<334777433",
"555eeeee555-----****############################****<3<33477443<",
"555eee555555-5-5****############################*****<<33477733<",
"5eeeee5ee5-5----****############################*****33334777433",
"555eeeee5555---5****############################*****3<334777433",
"55e5eee5e55-5-5-****############################*****3333477443<",
"55eeee5e5555----****############################*****<333477733<",
"888ww888333<3#<#<######<##################&&&&&&  *#**3*34877433",
"88www8883333#3####<<<<####################&&&&&&####***<44377333",
"3888888873333##<#<####<###################&&&&&& ###**<*34478343",
"338w8w883733#3#<##<##<####################&&&&&&####*#*<33487844",
"33388w8873333###<<####<<##################&&&&&&######<*33447773",
"3338w8883733#3<####<<#####################&&&&&&# ##***<33347778",
"#3788w8833333#<####<<#####################&&&&&&####**3*3<347777",
"333888883333#3##<<####<<################& &&&&&&# ##***<#<337777",
"#337888883333<<###<###<# ## ########@@@###**& &&####****33348777",
"#<33788883733#3##<##<#<#############@@@<##&&&&&&####****33337777",
"##33788883333<####<<#<###############@##**&&&&&&####****<3337777",
"<<33778883733#3#<######<######<#######33***&&&&&####****<3337777",
"##3338778333333####<<<#####**###@@@@$$3#**,&,&&&####****33347777",
"##<338778373<#<#<<#####<##***#33@@@$$$#3**,*,&&&####****33347777",
"#<#373777333<#<###<####<***#*33#@@$$$$33,*,,&,&,####**##33347777",
"##33373383333<3##<##<<##***#3##<@$$$$$3$-3,,,&,&####***#<3337777",
"# -355555555----********###*#<##255555555252----#***#3*<33487734",
" $--555555552-2-*#*****####*3#3355550555552-2---****#<<*33377744",
"O--5550555555---<*<*3*<*##*3#3332555055555552---****<*<#33377744",
" ---5555055555-2*<*<*<*<*#<*<3335505e0055555-22-*##3*<*<33387844",
"---5555e05052-2-#<*#<#<#3##3333355eeeeee05552-2-*3*<*3<<33377734",
"$--2555e5e5522-2<<333<3<<3<<33430eeeteee5e0555-5<*<#<3<<33477744",
"O--25505e555555-<<<<<<3<3<<33447eeeeteeee5055555*<*<<<<<33487744",
"O-25005e5e5555-5<<<<<<33<<333387eeeetteeeee55525<*<3<<<333377844",
"---25555505055553333333333333778e0eeeeeeteee55553333333344778777",
"--2555ee50555505444444443333878800eeeteeeeee00554444444444788877",
"-5550005e05e055534434343333878880eeeeteeeee05e504444444487888877",
"-255e55ee5e55e5077878787447778885eeeteeeeeeee5554444444477888783",
"-25550505ee55550877878784487858855eeeeeee000e5554444333478747443",
"---555505555055544343434444344345555e555055555553333333334333333",
"---525555555225544444433333333335555555555555532333333<3333333##",
" ---55555522252-333333333333-335--22255522225533#*<**<#3333<<###"
};
