/* XPM */
static char *Pixel_art_character__1__removebg_preview1744016278[] = {
/* columns rows colors chars-per-pixel */
"64 64 228 2 ",
"   c #050101",
".  c #0C0101",
"X  c #090A0B",
"o  c #130101",
"O  c #1B0203",
"+  c #1B050A",
"@  c #150B0B",
"#  c #1D0B0C",
"$  c #160906",
"%  c #1C110B",
"&  c #1A0B11",
"*  c #151313",
"=  c #1C1212",
"-  c #141C1A",
";  c #181818",
":  c #0C1011",
">  c #240302",
",  c #230C0C",
"<  c #280707",
"1  c #320401",
"2  c #340D07",
"3  c #24120C",
"4  c #2C1008",
"5  c #38150B",
"6  c #250D12",
"7  c #2C0E14",
"8  c #240B17",
"9  c #370E14",
"0  c #231314",
"q  c #2D1419",
"w  c #251B1C",
"e  c #2C1B1D",
"r  c #291416",
"t  c #331614",
"y  c #331D1C",
"u  c #3B1B1C",
"i  c #371916",
"p  c #2B231E",
"a  c #38251C",
"s  c #181E21",
"d  c #2C1D21",
"f  c #241F23",
"g  c #361C23",
"h  c #192926",
"j  c #1A312F",
"k  c #222425",
"l  c #2C2323",
"z  c #272929",
"x  c #332324",
"c  c #3C2424",
"v  c #3C262B",
"b  c #3C2A2C",
"n  c #362A29",
"m  c #38322B",
"M  c #272E31",
"N  c #3A2A32",
"B  c #233333",
"V  c #293434",
"C  c #243A35",
"Z  c #2B3B3B",
"A  c #263B39",
"S  c #353434",
"D  c #3D3233",
"F  c #353C3B",
"G  c #21362F",
"H  c #43160A",
"J  c #461B16",
"K  c #482616",
"L  c #55281E",
"P  c #4C2916",
"I  c #421E23",
"U  c #442B25",
"Y  c #432A2E",
"T  c #482828",
"R  c #552826",
"E  c #44342D",
"W  c #4C322C",
"Q  c #4B3027",
"!  c #5F3828",
"~  c #412E32",
"^  c #482D39",
"/  c #443334",
"(  c #443B3A",
")  c #4B3B3D",
"_  c #4A3735",
"`  c #523C34",
"'  c #52353A",
"]  c #533D3C",
"[  c #5A3A38",
"{  c #552C32",
"}  c #623628",
"|  c #663A35",
" . c #2C433F",
".. c #27403C",
"X. c #55433D",
"o. c #5B413D",
"O. c #56473A",
"+. c #4D423E",
"@. c #6A483C",
"#. c #754A3C",
"$. c #74513D",
"%. c #483A42",
"&. c #553E42",
"*. c #643E41",
"=. c #2E4642",
"-. c #324343",
";. c #3E4848",
":. c #3B514D",
">. c #4D4D4B",
",. c #474645",
"<. c #564449",
"1. c #5C4B4C",
"2. c #574748",
"3. c #54504B",
"4. c #435254",
"5. c #485554",
"6. c #5B5353",
"7. c #585857",
"8. c #664948",
"9. c #764A45",
"0. c #685349",
"q. c #76564B",
"w. c #635253",
"e. c #645B5D",
"r. c #685956",
"t. c #745957",
"y. c #6C6354",
"u. c #77645B",
"i. c #735F61",
"p. c #6A5F63",
"a. c #586767",
"s. c #6C6B6B",
"d. c #696767",
"f. c #7B6C64",
"g. c #776969",
"h. c #7B7269",
"j. c #687575",
"k. c #7D7574",
"l. c #706E71",
"z. c #885956",
"x. c #866358",
"c. c #926557",
"v. c #91705F",
"b. c #866B69",
"n. c #966863",
"m. c #897768",
"M. c #9A7565",
"N. c #8A7978",
"B. c #927C77",
"V. c #A26F66",
"C. c #A17F77",
"Z. c #A4766C",
"A. c #7B817F",
"S. c #8B8479",
"D. c #9A837C",
"F. c #948B7D",
"G. c #978579",
"H. c #A38B7A",
"J. c #AB8879",
"K. c #A9947D",
"L. c #B38C7C",
"P. c #957C82",
"I. c #788484",
"U. c #868788",
"Y. c #968985",
"T. c #999386",
"R. c #8A9393",
"E. c #8C9B98",
"W. c #939B9B",
"Q. c #949596",
"!. c #928D94",
"~. c #A88C86",
"^. c #A89587",
"/. c #B7998B",
"(. c #A69797",
"). c #B59B95",
"_. c #A18E91",
"`. c #B4A395",
"'. c #B8A79B",
"]. c #A4A49F",
"[. c #AD9DA1",
"{. c #9CA7A5",
"}. c #9BB2AA",
"|. c #A6A7A7",
" X c #BAAAA8",
".X c #AAB7B6",
"XX c #BEB8B6",
"oX c #AFB1AF",
"OX c #C2998A",
"+X c #D2B49E",
"@X c #CCAB9B",
"#X c #C4AAA3",
"$X c #CCB6AA",
"%X c #C7B7B4",
"&X c #D4BCBB",
"*X c #D7B4A6",
"=X c #E4BAAC",
"-X c #A7C1BA",
";X c #DCC3AC",
":X c #D8C1B5",
">X c #CDC4BB",
",X c #E5C9B7",
"<X c #EDD3BD",
"1X c #EDCBB7",
"2X c #B8C4C3",
"3X c #C2C6C6",
"4X c #DBC8C6",
"5X c #D2D3D4",
"6X c #E6CEC6",
"7X c #EBD3C3",
"8X c #E8D4CC",
"9X c #F9DAC9",
"0X c #E5DAD6",
"qX c #FADDD1",
"wX c #FCE3CE",
"eX c #FFE5D2",
"rX c #FFEBD9",
"tX c #FFF6DE",
"yX c #E6E1D5",
"uX c #DAE4E5",
"iX c #E7E9E6",
"pX c #F8EBE6",
"aX c #FEF6EA",
"sX c #EAFAF6",
"dX c #FEFDF3",
"fX c #FDFEFE",
"gX c #F7FAF9",
"hX c None",
/* pixels */
"hXhXhXhXhXhXhXhXhXhXhXhXhXhXhXhXhXhXhXhXhXhXhXhXhXhXhXhXhXhXhXhXhXhXhXhXhXhXhXhXhXhXhXhXhXhXhXhXhXhXhXhXhXhXhXhXhXhXhXhXhXhXhXhX",
"hXhXhXhXhXhXhXhXhXhXhXhXhXhXhXhXhXhXhXhXhXhXhXhXhXhXhXhXhXhXhXhXhXhXhXhXhXhXhXhXhXhXhXhXhXhXhXhXhXhXhXhXhXhXhXhXhXhXhXhXhXhXhXhX",
"hXhXhXhXhXhXhXhXhXhXhXhXhXhXhXhXhXhXhXhXhXhXhXhXhXhXhXhXhXhXhXhXhXhXhXhXhXhXhXhXhXhXhXhXhXhXhXhXhXhXhXhXhXhXhXhXhXhXhXhXhXhXhXhX",
"hXhXhXhXhXhXhXhXhXhXhXhXhXhXhXhXhXhXhXhXhXhXhXhXhXhXhXhXhXhXhXhXhXhXhX Xf.e r.hXhXhXhXhXhXhXhXhXhXhXhXhXhXhXhXhXhXhXhXhXhXhXhXhX",
"hXhXhXhXhXhXhXhXhXhXhXhXhXhXhXhXhXhXhXhXhXhXhXhXhXhXhXhXhXhXhX,.h.#X` T [ o.4X8XhXhXhXhXhXhXhXhXhXhXhXhXhXhXhXhXhXhXhXhXhXhXhXhX",
"hXhXhXhXhXhXhXhXhXhXhXhXhXhXhXhXhXhXhXhXhXhXhXhXhXhXhXhX( (.g.0 n 3 ` a 4 ~.&X0._.0XhXhXhXhXhXhXhXhXhXhXhXhXhXhXhXhXhXhXhXhXhXhX",
"hXhXhXhXhXhXhXhXhXhXhXhXhXhXhXhXhXhXhXhXhXhXhXhXhXQ.fXY.e e d # # ` { t [ t.T Q ` f.T.hXhXhXhXhXhXhXhXhXhXhXhXhXhXhXhXhXhXhXhXhX",
"hXhXhXhXhXhXhXhXhXhXhXhXhXhXhXhXhXhXhXhXhXhXhXhXhX$ t.& . r O + , E u 8.8.R | 8.t.E ,.hXhXhXhXhXhXhXhXhXhXhXhXhXhXhXhXhXhXhXhXhX",
"hXhXhXhXhXhXhXhXhXhXhXhXhXhXhXhXhXhXhXhXhXhXhXhXhX% D r 3 o 7 o # g 6 t I { *.*.*., _ hXhXhXhXhXhXhXhXhXhXhXhXhXhXhXhXhXhXhXhXhX",
"hXhXhXhXhXhXhXhXhXhXhXhXhXhXhXhXhXhXhXhXhXhXhXhXhX@ w _ ] y 7 o o 6 q 7 I < < < 7 O P.hXhXhXhXhXhXhXhXhXhXhXhXhXhXhXhXhXhXhXhXhX",
"hXhXhXhXhXhXhXhXhXhXhXhXhXhXhXhXhXhXhXhXhXhXhXhXhX= = y q y T ' O . + > < 9 U i y Y XXhXhXhXhXhXhXhXhXhXhXhXhXhXhXhXhXhXhXhXhXhX",
"hXhXhXhXhXhXhXhXhXhXhXhXhXhXhXhXhXhXhXhXhXhXhXhXhX  # # , c c u e Y + O o 7 i Q 2.b hXhXhXhXhXhXhXhXhXhXhXhXhXhXhXhXhXhXhXhXhXhX",
"hXhXhXhXhXhXhXhXhXhXhXhXhXhXhXhXhXhXhXhXhXhXhXhXhXl . . o , O t 8.8X#Xu.K u 3 t a hXhXhXhXhXhXhXhXhXhXhXhXhXhXhXhXhXhXhXhXhXhXhX",
"hXhXhXhXhXhXhXhXhXhXhXhXhXhXhXhXhXhXhXhXhXhXhXhXhXhX. % O o o T :XrXeXrX7X/.y.a n pXhXhXhXhXhXhXhXhXhXhXhXhXhXhXhXhXhXhXhXhXhXhX",
"hXhXhXhXhXhXhXhXhXhXhXhXhXhXhXhXhXhXhXhXhXhXhXhXhXhX. . o , g z.x.K.<XwX9XwX`.y.hXhXhXhXhXhXhXhXhXhXhXhXhXhXhXhXhXhXhXhXhXhXhXhX",
"hXhXhXhXhXhXhXhXhXhXhXhXhXhXhXhXhXhXhXhXhXhXhXhXhXhX2._ O > T C.P , P +XtX$Xa K.dXhXhXhXhXhXhXhXhXhXhXhXhXhXhXhXhXhXhXhXhXhXhXhX",
"hXhXhXhXhXhXhXhXhXhXhXhXhXhXhXhXhXhXhXhXhXhXhXhXhXhX'.P.n.R L Z.$.H , K.tXS.$ aXhXhXhXhXhXhXhXhXhXhXhXhXhXhXhXhXhXhXhXhXhXhXhXhX",
"hXhXhXhXhXhXhXhXhXhXhXhXhXhXhXhXhXhXhXhXhXhXhXhXhXhXhXq.9.V.V.c.L.$.O.wXeXK.y.yXhXhXhXhXhXhXhXhXhXhXhXhXhXhXhXhXhXhXhXhXhXhXhXhX",
"hXhXhXhXhXhXhXhXhXhXhXhXhXhXhXhXhXhXhXhXhXhXhXhXhXhX4X8.9 z.n.Z.=X=X+XtX<XK.`.hXhXhXhXhXhXhXhXhXhXhXhXhXhXhXhXhXhXhXhXhXhXhXhXhX",
"hXhXhXhXhXhXhXhXhXhXhXhXhXhXhXhXhXhXhXhXhXhXhXhXhXhXhX6X[ 9.z.n.OXwX<XeX;X<X#XhXhXhXhXhXhXhXhXhXhXhXhXhXhXhXhXhXhXhXhXhXhXhXhXhX",
"hXhXhXhXhXhXhXhXhXhXhXhXhXhXhXhXhXhXhXhXhXhXhXhXhXhX. N.b.I H z.c.+XwX<X<X<X^.hXhXhXhXhXhXhXhXhXhXhXhXhXhXhXhXhXhXhXhXhXhXhXhXhX",
"hXhXhXhXhXhXhXhXhXhXhXhXhXhXhXhXhXhXhXhXhXhXhXhXhXfX1.. q < < 1 L #.Z.OXv.4 :XaXhXhXhXhXhXhXhXhXhXhXhXhXhXhXhXhXhXhXhXhXhXhXhXhX",
"hXhXhXhXhXhXhXhXhXhXhXhXhXhXhXhXhXhXhXhXhXhXhXhXhX0Xr.o 9 I R J 1 H 2 1 5 P W 8XhXhXhXhXhXhXhXhXhXhXhXhXhXhXhXhXhXhXhXhXhXhXhXhX",
"hXhXhXhXhXhXhXhXhXhXhXhXhXhXhXhXhXhXhXhXhXhXhXhXhXhX).&.< R } L J } L } J q.W [ hXhXhXhXhXhXhXhXhXhXhXhXhXhXhXhXhXhXhXhXhXhXhXhX",
"hXhXhXhXhXhXhXhXhXhXhXhXhXhXhXhXhXhXhXhXhXhXhXhXhXhXqX/.H 1 J | | #.#.| 9.9.t B.~.hXhXhXhXhXhXhXhXhXhXhXhXhXhXhXhXhXhXhXhXhXhXhX",
"hXhXhXhXhXhXhXhXhXhXhXhXhXhXhXhXhXhXhXhXhXhXhXhXhXqXqX*XP H 2 2 H } 9.c.*.i t.pXY.4XhXhXhXhXhXhXhXhXhXhXhXhXhXhXhXhXhXhXhXhXhXhX",
"hXhXhXhXhXhXhXhXhXhXhXhXhXhXhXhXhXhXhXhXhXhXdXhXz.L.@Xc.} M.OXL H H 1 5 9 2 q.8.4 f.hXhXhXhXhXhXhXhXhXhXhXhXhXhXhXhXhXhXhXhXhXhX",
"hXhXhXhXhXhXhXhXhXhXhXhXhXhXhXhXhXhXhXhXhXhXrXhXJ.Z.c.} 1 V.<X1XL.| H > } t.> 2 c r.6XhXhXhXhXhXhXhXhXhXhXhXhXhXhXhXhXhXhXhXhXhX",
"hXhXhXhXhXhXhXhXhXhXhXhXhXhXhXhXhXhXhXhXhXdXhXm.9X1Xv.H L @.K.&X1X;Xq.5 2 u 5 0.$X7X).hXhXhXhXhXhXhXhXhXhXhXhXhXhXhXhXhXhXhXhXhX",
"hXhXhXhXhXhXhXhXhXhXhXhXhXhXhXhXhXhXhXhXaXdXb.@X1X7XJ.#XO.0.q.$X;X,X;Xm.5 b.@Xm.pX,X^.dXhXhXhXhXhXhXhXhXhXhXhXhXhXhXhXhXhXhXhXhX",
"hXhXhXhXhXhXhXhXhXhXhXhXhXhXhXhXhXhXhXhXpX#Xt.^.qXH.`.aXm.O.G.$X<X;X1XwX~.K.pX@.K.$X^.m.hXhXhXhXhXhXhXhXhXhXhXhXhXhXhXhXhXhXhXhX",
"hXhXhXhXhXhXhXhXhXhXhXhXhXhXhXhXhXhXhX X_.' (.D.u.S.hXhX2.c Y.B.H.K.^.J.K.B.rX7XO.H.>X0.^.hXhXhXhXhXhXhXhXhXhXhXhXhXhXhXhXhXhXhX",
"hXhXhXhXhXhXhXhXhXhXhXhXhXhXhXhXhXhX].r.g._ Y w.t.hXhXhXx / w.r.G.G.G./.'.1.F.aXG._ ` u.0.&XhXhXhXhXhXhXhXhXhXhXhXhXhXhXhXhXhXhX",
"hXhXhXhXhXhXhXhXhXhXhXhXhXhXhXhXhXhX%X .v n , v 6.hXhXk.= e c 1.y.G.H.G.x.O.m tXF.E , o.W #XhXhXhXhXhXhXhXhXhXhXhXhXhXhXhXhXhXhX",
"hXhXhXhXhXhXhXhXhXhXhXhXhXhXhXhXhXhXyXN.0 n x , _.(.n n # 0 g c P a K O.0.3.% >X(.y T g W ` hXhXhXhXhXhXhXhXhXhXhXhXhXhXhXhXhXhX",
"hXhXhXhXhXhXhXhXhXhXhXhXhXhXhXhXhXhX>.>.b 0 , &.4Xx @ n 2.p y x U E E U 3 a $ h.fX&XO Y ^ <.Y.hXhXhXhXhXhXhXhXhXhXhXhXhXhXhXhXhX",
"hXhXhXhXhXhXhXhXhXhXhXhXhXhXhXhXhXhX6.+.r e n d.Q.. x o d 6 + 6 4 , 4 a a y % h.hX4X, 7 t.&.XXhXhXhXhXhXhXhXhXhXhXhXhXhXhXhXhXhX",
"hXhXhXhXhXhXhXhXhXhXhXhXhXhXhXhXhXhX>.p = & v hXhXr . = = d n x ` o.o.U a % o (.hX0X&.g 8 8 5XhXhXhXhXhXhXhXhXhXhXhXhXhXhXhXhXhX",
"hXhXhXhXhXhXhXhXhXhXhXhXhXhXhXhXhXhXe.( & x D N.hXd l D 6.&.d 1.b.). Xb.^.u._ O.hX4X&.&.%.v !.hXhXhXhXhXhXhXhXhXhXhXhXhXhXhXhXhX",
"hXhXhXhXhXhXhXhXhXhXhXhXhXhXhXhXhXhXe.6.x x d + hX X= ,.N.g.7 i.#X#X%X`.4XO.S.h.&Xg.o ~ Y N g.hXhXhXhXhXhXhXhXhXhXhXhXhXhXhXhXhX",
"hXhXhXhXhXhXhXhXhXhXhXhXhXhXhXhXhXhXhX@ 0 0 & @ hXU.w m %.( d g m.).).`.h.O.h.S.S.O.$ % E D 3.hXhXhXhXhXhXhXhXhXhXhXhXhXhXhXhXhX",
"hXhXhXhXhXhXhXhXhXhXhXhXhXhXhXhXhXhXhX7.= f D hXhXl w l l e q + O O o 3 O.S.F.S.$.H.y.$ w * 6.hXhXhXhXhXhXhXhXhXhXhXhXhXhXhXhXhX",
"hXhXhXhXhXhXhXhXhXhXhXhXhXhXhXhXhXhXhXhXhX7.hXhX7.* >.S l = + + t O , p y.F.m.F.y.'.$Xm l k.pXhXhXhXhXhXhXhXhXhXhXhXhXhXhXhXhXhX",
"hXhXhXhXhXhXhXhXhXhXhXhXhXhXhXhXhXhXhXhXhXhXhXk.* s.s.a.s.e.w & y O $ a s.F.h.F.O.S.aXyXyXiXhXhXhXhXhXhXhXhXhXhXhXhXhXhXhXhXhXhX",
"hXhXhXhXhXhXhXhXhXhXhXhXhXhXhXhXhXhXhXhXhXhXhX7.z s.e.s.l.7.l q Y Y 8 ; 3.N.S.S.F.y.0XdXhXhXhXhXhXhXhXhXhXhXhXhXhXhXhXhXhXhXhXhX",
"hXhXhXhXhXhXhXhXhXhXhXhXhXhXhXhXhXhXhXhXhXhXhX,.k ;.d.7.6.n f v g ^ f 8 V >.g.N.F.D XXhXhXhXhXhXhXhXhXhXhXhXhXhXhXhXhXhXhXhXhXhX",
"hXhXhXhXhXhXhXhXhXhXhXhXhXhXhXhXhXhXhXhXhXhXhXU.: z ;.z S   S %.^ %.N s k z ( ( % T.fXhXhXhXhXhXhXhXhXhXhXhXhXhXhXhXhXhXhXhXhXhX",
"hXhXhXhXhXhXhXhXhXhXhXhXhXhXhXhXhXhXhXhXhXhXhX7.X - : k k   [.hX8 N N &   w m p % oXhXhXhXhXhXhXhXhXhXhXhXhXhXhXhXhXhXhXhXhXhXhX",
"hXhXhXhXhXhXhXhXhXhXhXhXhXhXhXhXhXhXhXhXhXhXhX* * w   ; l hXhXhXw.g %.+ . O & . >.hXhXhXhXhXhXhXhXhXhXhXhXhXhXhXhXhXhXhXhXhXhXhX",
"hXhXhXhXhXhXhXhXhXhXhXhXhXhXhXhXhXhXhXhXhXhX( . @ 0 +.  U.hXhXhXP.v ' 7 7 ~ 7 q N.hXhXhXhXhXhXhXhXhXhXhXhXhXhXhXhXhXhXhXhXhXhXhX",
"hXhXhXhXhXhXhXhXhXhXhXhXhXhXhXhXhXhXhXhXhXD ( e./ =   n hXhXhXhX[.& Y 7 ' P.b.N.g.hXhXhXhXhXhXhXhXhXhXhXhXhXhXhXhXhXhXhXhXhXhXhX",
"hXhXhXhXhXhXhXhXhXhXhXhXhXhXhXhXhXhXhXhXhX(.1.B.N.g.m <.hXhXhXhXhXv v 9 ' P._.b.] hXhXhXhXhXhXhXhXhXhXhXhXhXhXhXhXhXhXhXhXhXhXhX",
"hXhXhXhXhXhXhXhXhXhXhXhXhXhXhXhXhXhXhXhXhXpX6 <.i.N.<.l.hXhXhXhXhXl.f q v t.b.w.i.hXhXhXhXhXhXhXhXhXhXhXhXhXhXhXhXhXhXhXhXhXhXhX",
"hXhXhXhXhXhXhXhXhXhXhXhXhXhXhXhXhXhXhXhXhX[.6 < 8 g e.hXhXhXhXhXhX3Xf D r # o O  XhXhXhXhXhXhXhXhXhXhXhXhXhXhXhXhXhXhXhXhXhXhXhX",
"hXhXhXhXhXhXhXhXhXhXhXhXhXhXhXhXhXhXhXhXhXN., 8 O 1.hXhXhXhXhXhXhXhXI.|.r.. + + %XhXhXhXhXhXhXhXhXhXhXhXhXhXhXhXhXhXhXhXhXhXhXhX",
"hXhXhXhXhXhXhXhXhXhXhXhXhXhXhXhXhXhXhXhXfX&.+ d D hXhXhXhXhXhXhXhXhXhXhX!.. N + N.hXhXhXhXhXhXhXhXhXhXhXhXhXhXhXhXhXhXhXhXhXhXhX",
"hXhXhXhXhXhXhXhXhXhXhXhXhXhXhXhXhXhXfXfX(.N <.%.e.hXhXhXhXhXhXhXhXhXhXhX6.~ 8.g.&.%XhXhXhXhXhXhXhXhXhXhXhXhXhXhXhXhXhXhXhXhXhXhX",
"hXhXhXhXhXhXhXhXhXsXuXuXuX5X2X.X-X2X.XR.hX; x D S I.hXhXhXhXhXhXhXhXhX|.& d 1.&.o %. XhXhXhXhXhXhXhXhXhXhXhXhXhXhXhXhXhXhXhXhXhX",
"hXhXhXhXfXfXgXfXfXuX{.j.5. .B j A hXA : S s.6.k X V j C A j j A C A Z k   N ^ . ( p.d.l.Q.W.!.{.3X2X2XhXhXhXhXhXhXhXhXhXhXhXhXhX",
"hXhXhX5X3X.XW.R.R.R.I.a.4.-.Z Z A B :.s M %.S V X C  . ...A -.-. .Z -.M : : & X w F ,.z : s M z s z F 5.s.hXhXhXhXhXhXhXhXhXhXhX",
"hXhXhXhXhXR.5.V M V V V V 4.j.I.a.4.j s X * X : - G  . .:.5.4.Z =.=.F B k k z s - h 4.k.R.W.W.R.{.oXhXhXhXhXhXhXhXhXhXhXhXhXhXhX",
"hXhXhXhXhXhXhXhXhXhXhXhXhXhXhXhXhXsX5X5X2XoX|.{.}.}.-XhXhXhXhXhXhXhXhXhX{.W.W.W.W.W.E.-XhXhXhXhXhXhXhXhXhXhXhXhXhXhXhXhXhXhXhXhX",
"hXhXhXhXhXhXhXhXhXhXhXhXhXhXhXhXhXhXhXhXfXgXfXsXsXsXhXhXhXhXhXhXhXhXhXhXhXhXhXhXhXhXhXhXhXhXhXhXhXhXhXhXhXhXhXhXhXhXhXhXhXhXhXhX",
"hXhXhXhXhXhXhXhXhXhXhXhXhXhXhXhXhXhXhXhXhXhXhXfXhXhXhXhXhXhXhXhXhXhXhXhXhXhXhXhXhXhXhXhXhXhXhXhXhXhXhXhXhXhXhXhXhXhXhXhXhXhXhXhX"
};
