/* XPM */
static char *Handpainted_Stone_Floor_Texture__John_Lomax__1_1744035703[] = {
/* columns rows colors chars-per-pixel */
"64 64 71 1 ",
"  c #040400",
". c #0C0C01",
"X c #130F03",
"o c #121206",
"O c #15150A",
"+ c #1A160B",
"@ c #1A190E",
"# c #1D1D12",
"$ c #211E12",
"% c #1F2010",
"& c #222216",
"* c #252519",
"= c #2A261B",
"- c #2A2A1E",
"; c #2D2D21",
": c #322E22",
"> c #323126",
", c #353529",
"< c #3A362B",
"1 c #3A392E",
"2 c #3D3D31",
"3 c #413D32",
"4 c #424136",
"5 c #45453A",
"6 c #4A463A",
"7 c #4A4A3E",
"8 c #4D4D42",
"9 c #514D41",
"0 c #525146",
"q c #555549",
"w c #59554A",
"e c #57584A",
"r c #59594D",
"t c #5D5D52",
"y c #625E52",
"u c #626256",
"i c #65655A",
"p c #6A665A",
"a c #67685A",
"s c #6A695D",
"d c #6D6D62",
"f c #726F63",
"g c #6F7060",
"h c #727266",
"j c #76766A",
"k c #7A766A",
"l c #777869",
"z c #7A7A6D",
"x c #7D7D72",
"c c #827E72",
"v c #7F8071",
"b c #828275",
"n c #85857A",
"m c #89867A",
"M c #878879",
"N c #8A8A7D",
"B c #8D8D81",
"V c #918D81",
"C c #8F9080",
"Z c #929285",
"A c #959589",
"S c #99958A",
"D c #979889",
"F c #9A9A8D",
"G c #9D9D91",
"H c #A29E93",
"J c #9FA092",
"K c #A2A296",
"L c #A5A599",
"P c #AAAA9E",
"I c #AEABA0",
/* pixels */
"ijbMvxnBZBNxq#o-qdBFZGF8O,tjzzxnvFZnBxzBAAnh*@;7dzVVcVHmSVmfw=Xw",
"tszbvxvBxBj1@*-@#;2ijAB4%2tdjzxvvvxvBjhZAGb4 ;8tBnVVcSSVSVSmc9$:",
"2exBBbbnBt;O;qtq;#o#,qi2#2rdjvnnBjjBBzzAvxi,o15jVmmBmNSVSVSSSm6X",
"-0xBBBMbt;@5znNAji2;O@>;@,qdxBMvzxxxBBxzdt8*%88zccVVNcVSVVSSHIc+",
"-8djxbhr.>inZZBbAAnj8;;OO;5ixbbxvvvBxnjdtd2  rddVVcVVVVHVmSVVIS3",
"#,rhxh5#,dZFCBnxvZAGAdq2#@;8dxbBFxxABddieq;@#8qiVBckBSVVcmmmmSHw",
"O-qzg5>1nvnZZBBBxBxBABBx8;#>7tzAFjzBdq822*.q5#1rkcckmVmNcckmcmSf",
"*;0d7#5GvBZCBnvxBAxjxnAGB0%*>2tMBjhi8,>@@o t4o10wcSVVVmZckykccSm",
"2%2;;8BBBvBvBBBBBBxxjjxBGjd; ;5tdq,#oO%;q85,;#o@3rpfcmmmpfydckfw",
".OO,5dBjzzzzxxvnvxBxzjzxGhud8#%*##O#;28ttidjdq,%+<wskkkfykppt<:=",
"14 2tjBdzxvBBxxBxBBBxjjjDzdZd.O#;,2qtdjxBxzvvjtq;++;wkfypp6<$X==",
"vh#,udzxjxBZBBxjzBBBBBxzBBbb8O>rxxBZBBBBBxBBZBjiw<:==6pkp6$+=6pf",
"nnq#0hjjdjBBBBxxvBBBnnnxbFZ8%1tBBBBABBBBBvBBBBBBkyw<===3<#$3ycVc",
"nFzo1dxjxBBnzxBnnvvxvBnxnBx*#ijnBBBBBnBBABBvxxAGHki906+==+6fcVck",
"AFt#%5tixBZBxBxvBBvzvBnxBz5%5jxvAZBBBvBnvnBABBxvSHHksw<x6<kSVVVm",
"Bz*># ;8qdnxBBBBBBBxxBBzBiO;tdBAvvvBBBvBABxxxzxBmSSffw:m6<kSnmmn",
"q;@0d4%o;qrdxBBBBvhzBvxBt,*0xvxvNNNMNvCvvNvvNvvnSncs;##..5djzzzx",
"#,0nPAi*O#,8ddddxxBABvBx;;1ivbxxvNDNCCDNvvvvBNnZmVf4**,8>#>5170>",
",dnBBBGB5o@*#;;288ujdzj2@2ivBvxzvNDDCNCvvvvvBNNZbn8#;5rndO 25&O@",
"uvBndiBIdo;2>;oO%O#;>qq;>0jBBxvnvMNDDvvvvCZZCvxxnt-&8dzBKf18h2&u",
"xxjvzdzBx@,rrdtt88>#Oooo28dnBvnBvvvDDvvDDDJDBBxjh>#5sbBnnGi&&*2h",
"BBBBxhxxA;*8tnAGGIFBBt;#48inZBxbMvvNDvvLvNDJFBnj5#;ijbZBnBBr@&rj",
"dBAFBjjhn,%8dBBxzvBAIJi#>8dxBBxjvvvvvCDJvvNJABni&;8znBBNxtbA8O1i",
"xhdxvjvvA8%2dnGnxxBBvGv>o2tdzBBxvMvvvCCvvvvDBnjqo5ixKGbxjdjAj;*i",
"ihABhjBxFqo%zAvnxxvxxvBBO#qzjxZxvvAvvNBnjjNBjxs,&rhvLGnnxjnnBrOr",
"xvBBzhjzBd>>dBvnhjxBBnxx,%1trtzvDNvvNBMvdijnnntO4dzxAAxxbijAIdOr",
"vBBAAxjzGh;OqvBvxvZZnzBGq%;8ttdjvvvvBnvvAjsdis8O2dxjxzdxBxzjBx>2",
"ixvvBBjjBd;*qjjjxBBBzjxBd;#200rtvgvvxhdjxiiir7;O1ujdddxGLjhxh,.4",
"0jvxvxdi2>#O#;2qudjjvxi8;@.O#,8tijxjitihsq42;#@@@2izvnBAZxzd2O ;",
";rddiq1%O.o#@oO##18852;;%>1;@#*;5qttrr855;o #10i@#;4thjjddq##qq@",
"##;1;##O>1qhxh8%OooOoo%2dvBhr1O O#;252;* @*5dBFLz0;oO;qtr>;1qzBd",
"8#o#o#8jBBABBIJBt* ;8qijBBBBHAd8*  OOoO*8ijxBABAIGZh2@o @;txjxAn",
"B,#O>dzFZAvvxnGAS$:ycmcSSSHNmHHNnq# @*5dxBBBZZBBnBGGGhr#O2vBnBBZ",
"x;@>tzxZBvzxzxGGc=<pcccHmSNNmmHHAZq* 5rizBnBBBvnxnALIvz0O,jnnnjh",
"8o#8hBBxxxzBxxFK9$6ppccHmmNmcmNIBLx7 7iuzBBBBBxnBxZFGzxi*>uzxBnx",
"Oo;8dBBjBnxnnbDC$=wywccVSNmccmNNxBni@,tiBAAZBnxBAnBBAhjt*>dvxi5>",
"1%*8jxBhxnxxbZAd+:ccyccSSScccmNmnnFd>@0iBAAZBvxBFnxBFxnd%#282;#*",
"x,o0vvBxzBvnBGB5+3wcpcSmHmmcmNNmBnKi1o8izBBvnzjnAnnBGBZd4oo.O;8z",
"A0O5jBFBnBBBABd&$9ccccHmSSmmNHNmxnAd5@2idxxzxzjvBnnvAnBiq*;4qidv",
"Zd>;8zGxBBnZCj8 <wcccSHScSmSNNNNnBBBt#*tdjzznxxBxBBxBnZi8O*tnFBA",
"AB2@8hzBjBMMn8O#6cccScSmNNNSNNNSBZAAd;#rtddijvxjvnnnBBxi;;qjvBBB",
"BFr#,ttdbzu04* #3wccccNcmmNNmccNBBAKn,@5rsdijvBBBFBvBBi,O8ihBBvz",
"dAdO.%;;;**-*>.>3wccccHcmmmmmcccxxBKZ2@2rdddjnBAALBxnx4O2xvhzjjG",
"vB8OO*>4<18r8d>*3cccccNcccmcccccBxxBn8#,qhvnnBBAZAnnnq*%tjjjBztd",
"j8@%0uijbbNxcNw+<yccccmckcccbnmnjzjBB8#;7dMAFBvBABnZh*@8dxBvhhjd",
">##0xjhBNmNkccc+:9wccccccccccmmnjBBAAt;#2ubAFCnBGBBB0O*ijZFd8hBj",
"#>qhxzzBmmNcccc$$6wccccccmmcnmMvcAZBxr;o2rdznxvBBNBs-%8ihjdujj8%",
"8q88qxBBcfccmfH<+:ccccccNNNmnNnvBFct01O.,8qtidhBjxv5.2jtdvzzh>.;",
"8udrtdxZxxxBnxJto*4ivNnxNBnvnBBBiiq1#OOO;O#5qttqti0**8dttq12 @8q",
"djjhhjxBjBBZnhGd#;270qtirizBAnjhq;O#,5qi58#O;;,5;;*##**O O ##tdx",
"xvvnBBnZzBAZvhGxo*180075q8qtq088O@,riidxjB8;;**O;@ .O#*;25,  tin",
"BBvBABBZnBBznxGj@@@#*>>;-*;;*;;o;0ditijnji85;5x81*@;5qtdxnj, 2in",
"FBvBABxxBBnjZAB5O@##OOO. .. .%%.ihduijxxGndt,;5#*;5ixBnjxBBj,#tj",
"BBBvBxxxZBnxGBt@,uNZxjdstt5,>;%%diavnxjjjBxii,OO5qijnBBnBnnBt@8q",
"jBnvBBvBBznBFu>#7snxzxBGJIJJZ8O,vvvvxxBAxAnqi8@2idxzxnBABnjxx,,i",
"jBBBvBnnndnBn,@,udjjzxxhnnjNn;oivCvvxBGAxnGdir@*8inABnxxBBBjA5 t",
"dzBxjznxhxZh,.@8snndznnNNvNAtO*hvvvvvvvvxnxnxt*#8dnnnnjjBBjjnt#,",
"riittdddxxt>,;*tvBZvhnNNvFJh,%8NvvvvvvNDnnxnAi2#2ixnBBBGABjjni#;",
"O##O@%%#*,#*jx,>jNFnhzBnvLZ1.2vANvCvvCDJxjjxAit*,tjxnnBBBxnnx8@O",
",58qqq51#;ootj,;0xNvxnBNZn8@%aAZJDDvDDDCdxxxjii*#;8rijxAGxd8;#@,",
"jvABBvxjddq>%;@#2BvdNnNAZ8@*evZNDCvvCDvvjGBnidi#@####;28t2,#@;5i",
"jzzhddjznBAvd5@oqGvsBNBBu*o5jvvvvvvvvDvvnLABij8##,,;##O@OO@#2tid",
"vxxxxxvvvBBBZu;>iAvvnBFj*#,tvjvvvvvvvCCvABGxtq##2qtdjirr5;##*qij",
"ddjBBBvjjBBBv1 8ivvZnBLt.,tjvvvvvCvvvvvBBnLiq;@5tidjnBnAxjt;#;,t"
};
